<?xml version="1.0" encoding="UTF-8"?>
<svg width="60px" height="53px" viewBox="0 0 60 53" version="1.1" xmlns="http://www.w3.org/2000/svg" xmlns:xlink="http://www.w3.org/1999/xlink">
    <title>icon-on-dark</title>
    <g id="icon-on-dark" stroke="none" fill="none" transform="translate(0.5, 0.5)" fill-rule="nonzero">
        <path d="M35.8650464,14.892 L47.8370464,28.251 L49.1510464,28.251 L49.1510464,-7.81597009e-14 L58.3490464,-7.81597009e-14 L58.3490464,51.1 L49.1510464,51.1 L49.1510464,36.719 L47.8370464,36.719 L35.1350464,51.1 L23.214,51.1 L10.512,36.719 L9.198,36.719 L9.198,51.1 L-1.3500312e-13,51.1 L-1.3500312e-13,-2.84217094e-14 L9.198,-2.84217094e-14 L9.198,28.251 L10.512,28.251 L22.484,14.892 L35.8650464,14.892 Z M29.174,20.427 L17.739,32.412 L29.174,44.765 L40.6100464,32.412 L29.174,20.427 Z" id="Combined-Shape" fill="#FFFFFF"></path>
    </g>
</svg>