<?xml version="1.0" encoding="UTF-8"?>
<svg width="281px" height="56px" viewBox="0 0 281 56" version="1.1" xmlns="http://www.w3.org/2000/svg" xmlns:xlink="http://www.w3.org/1999/xlink">
    <title>wordmark-on-dark</title>
    <g id="wordmark-on-dark" stroke="none" fill="none" transform="translate(0.5, 0.5)" fill-rule="nonzero">
        <path d="M0.11,53 L0.11,1.9 L9.308,1.9 L9.308,30.151 L10.622,30.151 L22.594,16.792 L34.566,16.792 L17.849,34.312 L35.15,53 L23.324,53 L10.622,38.619 L9.308,38.619 L9.308,53 L0.11,53 Z M39.082,53 L39.082,16.792 L48.28,16.792 L48.28,53 L39.082,53 Z M43.681,12.558 C42.0263333,12.558 40.6271667,12.0226667 39.4835,10.952 C38.3398333,9.88133333 37.768,8.47 37.768,6.718 C37.768,4.966 38.3398333,3.55466667 39.4835,2.484 C40.6271667,1.41333333 42.0263333,0.878 43.681,0.878 C45.3843333,0.878 46.7956667,1.41333333 47.915,2.484 C49.0343333,3.55466667 49.594,4.966 49.594,6.718 C49.594,8.47 49.0343333,9.88133333 47.915,10.952 C46.7956667,12.0226667 45.3843333,12.558 43.681,12.558 Z M73.309,54.022 C69.805,54.022 66.6295,53.292 63.7825,51.832 C60.9355,50.372 58.6846667,48.255 57.03,45.481 C55.3753333,42.707 54.548,39.349 54.548,35.407 L54.548,34.385 C54.548,30.443 55.3753333,27.085 57.03,24.311 C58.6846667,21.537 60.9355,19.42 63.7825,17.96 C66.6295,16.5 69.805,15.77 73.309,15.77 C76.7643333,15.77 79.733,16.3783333 82.215,17.595 C84.697,18.8116667 86.7045,20.4785 88.2375,22.5955 C89.7705,24.7125 90.7803333,27.1093333 91.267,29.786 L82.361,31.684 C82.1663333,30.224 81.7283333,28.91 81.047,27.742 C80.3656667,26.574 79.4045,25.6493333 78.1635,24.968 C76.9225,24.2866667 75.3773333,23.946 73.528,23.946 C71.6786667,23.946 70.0118333,24.3475 68.5275,25.1505 C67.0431667,25.9535 65.8751667,27.1458333 65.0235,28.7275 C64.1718333,30.3091667 63.746,32.2436667 63.746,34.531 L63.746,35.261 C63.746,37.5483333 64.1718333,39.4828333 65.0235,41.0645 C65.8751667,42.6461667 67.0431667,43.8385 68.5275,44.6415 C70.0118333,45.4445 71.6786667,45.846 73.528,45.846 C76.302,45.846 78.4068333,45.1281667 79.8425,43.6925 C81.2781667,42.2568333 82.1906667,40.371 82.58,38.035 L91.486,40.152 C90.8533333,42.7313333 89.7705,45.0795 88.2375,47.1965 C86.7045,49.3135 84.697,50.9803333 82.215,52.197 C79.733,53.4136667 76.7643333,54.022 73.309,54.022 Z M132.743046,16.792 L144.715046,30.151 L146.029046,30.151 L146.029046,1.9 L155.227046,1.9 L155.227046,53 L146.029046,53 L146.029046,38.619 L144.715046,38.619 L132.013046,53 L120.092,53 L107.39,38.619 L106.076,38.619 L106.076,53 L96.878,53 L96.878,1.9 L106.076,1.9 L106.076,30.151 L107.39,30.151 L119.362,16.792 L132.743046,16.792 Z M126.052,22.327 L114.617,34.312 L126.052,46.665 L137.488046,34.312 L126.052,22.327 Z M257.689046,54.022 C260.949713,54.022 263.456046,53.4623333 265.208046,52.343 C266.960046,51.2236667 268.249713,49.9826667 269.077046,48.62 L270.391046,48.62 L270.391046,53 L279.443046,53 L279.443046,1.9 L270.245046,1.9 L270.245046,20.953 L268.931046,20.953 C268.395713,20.077 267.67788,19.2496667 266.777546,18.471 C265.877213,17.6923333 264.68488,17.0475 263.200546,16.5365 C261.716213,16.0255 259.879046,15.77 257.689046,15.77 C254.769046,15.77 252.068046,16.4878333 249.586046,17.9235 C247.104046,19.3591667 245.108713,21.464 243.600046,24.238 C242.09138,27.012 241.337046,30.37 241.337046,34.312 L241.337046,35.48 C241.337046,39.422 242.09138,42.78 243.600046,45.554 C245.108713,48.328 247.104046,50.4328333 249.586046,51.8685 C252.068046,53.3041667 254.769046,54.022 257.689046,54.022 Z M260.463046,45.992 C257.64038,45.992 255.280046,45.0795 253.382046,43.2545 C251.484046,41.4295 250.535046,38.765 250.535046,35.261 L250.535046,34.531 C250.535046,31.027 251.47188,28.3625 253.345546,26.5375 C255.219213,24.7125 257.591713,23.8 260.463046,23.8 C263.285713,23.8 265.646046,24.7125 267.544046,26.5375 C269.442046,28.3625 270.391046,31.027 270.391046,34.531 L270.391046,35.261 C270.391046,38.765 269.442046,41.4295 267.544046,43.2545 C265.646046,45.0795 263.285713,45.992 260.463046,45.992 Z M223.827046,54.022 C226.40638,54.022 228.718046,53.5718333 230.762046,52.6715 C232.806046,51.7711667 234.424213,50.4571667 235.616546,48.7295 C236.80888,47.0018333 237.405046,44.897 237.405046,42.415 C237.405046,39.933 236.80888,37.8525 235.616546,36.1735 C234.424213,34.4945 232.769546,33.2291667 230.652546,32.3775 C228.535546,31.5258333 226.11438,31.1 223.389046,31.1 L213.461046,31.1 L213.461046,29.056 C213.461046,27.3526667 213.99638,25.9535 215.067046,24.8585 C216.137713,23.7635 217.841046,23.216 220.177046,23.216 C222.46438,23.216 224.167713,23.7391667 225.287046,24.7855 C226.40638,25.8318333 227.13638,27.1823333 227.477046,28.837 L235.945046,25.99 C235.361046,24.1406667 234.424213,22.4495 233.134546,20.9165 C231.84488,19.3835 230.117213,18.1425 227.951546,17.1935 C225.78588,16.2445 223.145713,15.77 220.031046,15.77 C215.261713,15.77 211.490046,16.9623333 208.716046,19.347 C205.942046,21.7316667 204.555046,25.187 204.555046,29.713 L204.555046,43.218 C204.555046,44.678 203.873713,45.408 202.511046,45.408 L199.591046,45.408 L199.591046,53 L205.723046,53 C207.523713,53 209.008046,52.562 210.176046,51.686 C211.344046,50.81 211.928046,49.642 211.928046,48.182 L211.928046,48.109 L213.315046,48.109 C213.509713,48.693 213.947713,49.4595 214.629046,50.4085 C215.31038,51.3575 216.381046,52.197 217.841046,52.927 C219.301046,53.657 221.29638,54.022 223.827046,54.022 Z M222.221046,46.576 C219.641713,46.576 217.53688,45.8581667 215.906546,44.4225 C214.276213,42.9868333 213.461046,41.0766667 213.461046,38.692 L213.461046,37.962 L222.732046,37.962 C224.43538,37.962 225.773713,38.327 226.747046,39.057 C227.72038,39.787 228.207046,40.809 228.207046,42.123 C228.207046,43.437 227.696046,44.5076667 226.674046,45.335 C225.652046,46.1623333 224.167713,46.576 222.221046,46.576 Z M178.796046,54.022 C182.300046,54.022 185.475546,53.292 188.322546,51.832 C191.169546,50.372 193.42038,48.255 195.075046,45.481 C196.729713,42.707 197.557046,39.349 197.557046,35.407 L197.557046,34.385 C197.557046,30.443 196.729713,27.085 195.075046,24.311 C193.42038,21.537 191.169546,19.42 188.322546,17.96 C185.475546,16.5 182.300046,15.77 178.796046,15.77 C175.340713,15.77 172.372046,16.3783333 169.890046,17.595 C167.408046,18.8116667 165.400546,20.4785 163.867546,22.5955 C162.334546,24.7125 161.324713,27.1093333 160.838046,29.786 L169.744046,31.684 C169.938713,30.224 170.376713,28.91 171.058046,27.742 C171.73938,26.574 172.700546,25.6493333 173.941546,24.968 C175.182546,24.2866667 176.727713,23.946 178.577046,23.946 C180.42638,23.946 182.093213,24.3475 183.577546,25.1505 C185.06188,25.9535 186.22988,27.1458333 187.081546,28.7275 C187.933213,30.3091667 188.359046,32.2436667 188.359046,34.531 L188.359046,35.261 C188.359046,37.5483333 187.933213,39.4828333 187.081546,41.0645 C186.22988,42.6461667 185.06188,43.8385 183.577546,44.6415 C182.093213,45.4445 180.42638,45.846 178.577046,45.846 C175.803046,45.846 173.698213,45.1281667 172.262546,43.6925 C170.82688,42.2568333 169.91438,40.371 169.525046,38.035 L160.619046,40.152 C161.251713,42.7313333 162.334546,45.0795 163.867546,47.1965 C165.400546,49.3135 167.408046,50.9803333 169.890046,52.197 C172.372046,53.4136667 175.340713,54.022 178.796046,54.022 Z" id="Combined-Shape" fill="#FFFFFF"></path>
    </g>
</svg>